<svg width="15" height="11" viewBox="0 0 15 11" fill="none" xmlns="http://www.w3.org/2000/svg">
<g clip-path="url(#clip0_0_63)">
<g clip-path="url(#clip1_0_63)">
<g clip-path="url(#clip2_0_63)">
<path d="M14.8004 5.96236L10.0276 10.4624C9.89901 10.5795 9.72677 10.6443 9.54801 10.6428C9.36921 10.6413 9.19821 10.5737 9.07179 10.4546C8.9454 10.3353 8.8737 10.1741 8.87211 10.0055C8.87057 9.83699 8.93931 9.6746 9.06351 9.55336L12.6724 6.15072H0.681823C0.500996 6.15072 0.327569 6.083 0.199702 5.96245C0.071835 5.84189 0 5.67839 0 5.50786C0 5.33737 0.071835 5.17387 0.199702 5.05332C0.327569 4.93276 0.500996 4.865 0.681823 4.865H12.6724L9.06351 1.46237C8.99837 1.40307 8.94643 1.33214 8.91069 1.25371C8.87499 1.17527 8.85617 1.09092 8.85536 1.00556C8.85459 0.9202 8.87181 0.835553 8.9061 0.756547C8.94039 0.677542 8.99104 0.605765 9.05503 0.545406C9.11906 0.485047 9.19517 0.437312 9.279 0.404988C9.36279 0.372665 9.45257 0.3564 9.54309 0.357141C9.63364 0.357883 9.72309 0.375617 9.80627 0.409309C9.88946 0.443 9.96471 0.491974 10.0276 0.553374L14.8004 5.05336C14.9282 5.17392 15 5.33742 15 5.50786C15 5.67835 14.9282 5.8418 14.8004 5.96236Z" fill="white"/>
</g>
</g>
</g>
<defs>
<clipPath id="clip0_0_63">
<rect width="15" height="11" fill="white"/>
</clipPath>
<clipPath id="clip1_0_63">
<rect width="15" height="11" fill="white"/>
</clipPath>
<clipPath id="clip2_0_63">
<rect width="15" height="10.2857" fill="white" transform="translate(0 0.357117)"/>
</clipPath>
</defs>
</svg>
