<svg width="33" height="34" viewBox="0 0 33 34" fill="none" xmlns="http://www.w3.org/2000/svg">
<g clip-path="url(#clip0_374_1684)">
<g clip-path="url(#clip1_374_1684)">
<g clip-path="url(#clip2_374_1684)">
<mask id="mask0_374_1684" style="mask-type:luminance" maskUnits="userSpaceOnUse" x="0" y="0" width="33" height="34">
<path d="M0 0.5H33V33.5H0V0.5Z" fill="black"/>
</mask>
<g mask="url(#mask0_374_1684)">
<path d="M16.5 32.5332C12.6328 26.7324 5.86523 18.8691 5.86523 12.1016C5.86523 6.23755 10.636 1.4668 16.5 1.4668C22.364 1.4668 27.1348 6.23755 27.1348 12.1016C27.1348 18.8691 20.3672 26.7324 16.5 32.5332Z" stroke="white" stroke-width="2" stroke-miterlimit="10" stroke-linecap="round" stroke-linejoin="round"/>
<path d="M16.5 16.9355C13.8347 16.9355 11.666 14.7669 11.666 12.1015C11.666 9.43623 13.8347 7.26758 16.5 7.26758C19.1653 7.26758 21.334 9.43623 21.334 12.1015C21.334 14.7669 19.1653 16.9355 16.5 16.9355Z" stroke="white" stroke-width="2" stroke-miterlimit="10" stroke-linecap="round" stroke-linejoin="round"/>
</g>
<g clip-path="url(#clip3_374_1684)">
<path d="M26.97 11.8531L26.9695 11.8517C26.8952 11.4281 24.4523 9.71387 22.2301 9.71387C19.811 9.71387 17.5705 12.1624 16.9429 12.2139C16.3695 12.2156 16.3717 12.9281 16.945 12.9281C18.709 12.9281 20.7745 8.49815 25.3945 11.5131C24.8476 11.6253 24.4632 11.9124 24.2634 12.3567C22.8821 11.3778 20.6594 11.931 20.0534 13.1517C19.8414 13.5849 20.6363 13.8546 20.8579 13.421C21.3526 12.4917 23.3303 12.091 24.2173 13.4364C24.9471 14.5417 27.2914 13.6624 26.97 11.8531ZM24.9827 13.0978C24.9966 12.4271 25.3163 12.1106 26.1212 12.1828C26.0938 13.0799 25.1912 13.4064 24.9827 13.0978Z" fill="#11319E"/>
<path d="M21.757 13.5793C21.77 13.5918 23.0627 14.8371 23.0627 16.5C23.0627 20.0579 19.5795 25.7857 17.4159 25.7857C15.8777 25.7857 8.64367 20.9411 7.93086 17.0932C16.3291 20.0304 13.1894 8.35393 21.0086 8.28857C21.3178 8.28786 22.1931 8.28571 22.6644 8.28571C23.0023 8.28571 23.5696 8.425 23.5696 9.35714C23.5696 9.82964 24.4384 9.82964 24.4384 9.35714C24.4384 8.03929 23.4828 7.57143 22.6644 7.57143C22.1445 7.57143 21.3804 7.57357 20.893 7.57464V7.57964C18.934 7.62107 17.5675 8.3175 16.5471 9.30358V8.29214C16.5584 7.78071 16.012 7.21429 14.8096 7.21429C14.307 7.21429 13.9074 7.31393 13.609 7.50429C13.3349 7.09821 12.6108 6.5 11.964 6.5C10.5388 6.5 9.15059 7.88071 9.9924 8.80964C10.6461 9.53178 10.8286 10.2568 10.8798 10.5929C9.98241 11.0593 7 12.8811 7 16.5C7 20.7814 15.2488 26.5 17.4159 26.5C20.4799 26.5 23.9315 19.9764 23.9315 16.5C23.9315 14.5736 22.4755 13.1704 22.4138 13.1114C22.0363 12.7539 21.3813 13.2225 21.757 13.5793ZM14.1689 12.9414C13.7554 11.9925 12.977 10.7025 11.7373 10.4671C11.683 10.1311 11.5318 9.56572 11.1244 8.94607C11.9549 8.79643 12.4818 8.35714 12.7424 7.71214C13.1438 8.1475 13.086 8.67607 13.0721 10.0714C13.0721 10.5439 13.9409 10.5439 13.9409 10.0714V9.00536C14.5594 9.14071 15.1415 9.10107 15.6784 8.91429V10.2986C15.062 11.1368 14.5933 12.0675 14.1689 12.9414ZM15.6063 8.14071C14.9356 8.47571 14.3018 8.36821 13.9665 8.265C14.1637 7.79964 15.3461 7.85964 15.6063 8.14071ZM12.0023 7.21929C11.8698 7.86393 11.4358 8.2525 10.6253 8.28214C10.4798 7.93214 11.2252 7.15536 12.0023 7.21929ZM11.4389 11.1479C12.5817 11.2596 13.4018 13.1761 13.6516 13.9961C12.3524 16.5764 11.2404 17.6511 7.88048 16.2882C8.00167 13.0111 10.8499 11.4371 11.4389 11.1479Z" fill="#11319E"/>
<path d="M17.2366 13.8912V15.9378L15.7398 18.2723L14.0448 19.1788L13.0541 18.5903C12.9512 18.5293 12.8223 18.5139 12.7054 18.5485L11.5041 18.9054C10.9999 19.0553 11.257 19.7326 11.7575 19.5824L12.773 19.2808L13.5767 19.7583L13.2447 20.9416C13.1166 21.3988 13.8926 21.574 14.022 21.1151L14.3823 19.8311L15.6357 19.1609V22.8126C15.6357 23.2848 16.4365 23.2848 16.4365 22.8126V20.8192L17.7551 21.9944C18.1259 22.3284 18.6966 21.8249 18.3205 21.4898L16.4357 19.81V18.6253L17.7968 16.5027L18.7863 16.9434L18.4459 18.4604C18.3422 18.9251 19.127 19.0674 19.2307 18.6006L19.4846 17.4701L20.1569 18.0693C20.5325 18.4026 21.0975 17.898 20.7231 17.5643L19.5218 16.4938C19.3509 16.3806 18.6829 16.108 18.0374 15.8118V13.8912C18.0374 13.4191 17.2366 13.4191 17.2366 13.8912Z" fill="#11319E"/>
</g>
</g>
</g>
</g>
<defs>
<clipPath id="clip0_374_1684">
<rect width="33" height="33" fill="white" transform="translate(0 0.5)"/>
</clipPath>
<clipPath id="clip1_374_1684">
<rect width="33" height="33" fill="white" transform="translate(0 0.5)"/>
</clipPath>
<clipPath id="clip2_374_1684">
<rect width="33" height="33" fill="white" transform="translate(0 0.5)"/>
</clipPath>
<clipPath id="clip3_374_1684">
<rect width="20" height="20" fill="white" transform="translate(7 6.5)"/>
</clipPath>
</defs>
</svg>
