<svg width="20" height="20" viewBox="0 0 20 20" fill="none" xmlns="http://www.w3.org/2000/svg">
<g clip-path="url(#clip0_362_1095)">
<path d="M18.3999 0.509578C16.9671 -0.283753 15.3969 0.2584 14.3478 1.06835C12.9491 0.390186 11.4191 0.0255794 9.86485 0C8.3106 0.0255471 6.78063 0.390156 5.38192 1.06835C4.33268 0.258567 2.76266 -0.284088 1.32979 0.509578C0.840967 0.764877 0.451364 1.17605 0.222761 1.67791C-0.00584251 2.17977 -0.0603638 2.74359 0.0678428 3.27995C0.256936 4.00074 0.619247 4.66444 1.12327 5.21332C1.10815 5.53449 1.1625 5.85515 1.28261 6.1534C1.40271 6.45164 1.58575 6.72047 1.81922 6.94153C2.17394 7.30701 2.63701 7.54841 3.13975 7.62992C3.22556 7.64217 3.31214 7.64841 3.39882 7.64855C3.5863 7.6531 3.77277 7.62006 3.94729 7.55145C4.12178 7.48282 4.28079 7.37997 4.41496 7.24896C5.04578 6.61833 4.90775 5.45375 4.10737 4.65337C3.53986 4.08586 2.79036 3.85332 2.17651 3.98967C1.91586 3.67792 1.72642 3.31301 1.62143 2.92047C1.5712 2.72176 1.59177 2.51175 1.67959 2.32656C1.7674 2.14136 1.91699 1.99254 2.10263 1.90568C2.71967 1.56366 3.77375 1.65198 4.73699 2.61875C4.77841 2.66017 4.81951 2.70091 4.86025 2.74099C5.14847 3.02353 5.37751 3.36069 5.53403 3.73274C5.69052 4.10479 5.77134 4.50427 5.77178 4.90792C5.76315 5.552 5.66712 6.19197 5.48633 6.81022C4.78014 9.30255 5.38896 10.425 6.15978 11.8459C6.96017 13.3229 7.95885 15.1636 7.95885 19.4345C7.95885 19.5125 7.98981 19.5872 8.0449 19.6423C8.1 19.6974 8.17474 19.7284 8.25269 19.7284C8.3306 19.7284 8.40534 19.6974 8.46044 19.6423C8.51554 19.5872 8.54649 19.5125 8.54649 19.4345C8.54649 15.0145 7.50921 13.102 6.67559 11.5652C5.91348 10.1604 5.41011 9.23137 6.05099 6.96992C6.24666 6.30027 6.35041 5.60715 6.35943 4.90959C6.35912 4.42748 6.26277 3.95027 6.07603 3.50581C5.88929 3.06134 5.61589 2.65854 5.27175 2.3209C5.2323 2.28245 5.19301 2.24316 5.15323 2.20336C3.97406 1.01966 2.62816 0.942093 1.81787 1.39089C1.52077 1.54032 1.28304 1.786 1.14345 2.08785C1.00387 2.38971 0.970652 2.72996 1.04922 3.05312C1.16042 3.48403 1.35839 3.88773 1.631 4.23951C1.58911 4.27203 1.54924 4.30707 1.51162 4.34444C1.44847 4.40833 1.39219 4.47869 1.34372 4.5543C1.01249 4.1406 0.772773 3.66132 0.640386 3.14814C0.543008 2.7363 0.585932 2.30373 0.762345 1.91905C0.938762 1.53438 1.23857 1.21961 1.61421 1.0247C2.85803 0.336307 4.25899 0.891386 5.1554 1.64073C5.19932 1.67747 5.25301 1.70056 5.30986 1.70715C5.36674 1.71374 5.42427 1.70355 5.47543 1.67783C6.83778 0.988439 8.33827 0.615767 9.86485 0.587652C11.3913 0.615532 12.8918 0.987915 14.2541 1.67699C14.3053 1.70271 14.3628 1.7129 14.4197 1.70631C14.4766 1.69972 14.5302 1.67663 14.5741 1.63989C15.4709 0.890715 16.8715 0.335132 18.1153 1.02386C18.4912 1.21877 18.7912 1.53366 18.9676 1.91853C19.144 2.30339 19.1868 2.73618 19.0892 3.14814C18.9569 3.66195 18.7169 4.14178 18.3852 4.55584C18.337 4.48022 18.281 4.40989 18.2181 4.34595C18.1804 4.3086 18.1406 4.27356 18.0987 4.24101C18.3715 3.8889 18.5695 3.48479 18.6805 3.05345C18.759 2.73029 18.7258 2.39006 18.5862 2.08821C18.4467 1.78636 18.2089 1.54069 17.9119 1.39123C17.1017 0.942597 15.756 1.02 14.5762 2.2037C14.5367 2.24349 14.4974 2.28278 14.4586 2.32123C14.1145 2.65884 13.8412 3.06164 13.6544 3.50608C13.4677 3.95052 13.3714 4.4277 13.3712 4.90975C13.3802 5.6074 13.4839 6.30055 13.6796 6.97025C14.3204 9.23219 13.8171 10.1604 13.055 11.5653C12.2205 13.102 11.1832 15.0145 11.1832 19.4345C11.1832 19.5125 11.2142 19.5872 11.2693 19.6423C11.3244 19.6974 11.3991 19.7284 11.477 19.7284C11.555 19.7284 11.6297 19.6974 11.6848 19.6423C11.7399 19.5872 11.7709 19.5125 11.7709 19.4345C11.7709 15.1636 12.7689 13.3229 13.5706 11.8454C14.3414 10.4245 14.9502 9.30206 14.2441 6.80989C14.0633 6.19156 13.9673 5.55156 13.9586 4.9074C13.9592 4.50397 14.04 4.10466 14.1965 3.73279C14.353 3.36093 14.5819 3.02395 14.87 2.74148C14.911 2.70141 14.952 2.66061 14.9932 2.61909C15.9566 1.65215 17.0105 1.56383 17.6278 1.90601C17.8133 1.99293 17.9629 2.14178 18.0506 2.32697C18.1384 2.51216 18.1589 2.72213 18.1086 2.92079C18.0036 3.31329 17.8141 3.67811 17.5536 3.98984C16.9399 3.85351 16.1902 4.08603 15.6227 4.65353C14.8223 5.45392 14.6843 6.61797 15.3151 7.24912C15.4493 7.38014 15.6083 7.48299 15.7828 7.55162C15.9573 7.62025 16.1438 7.65326 16.3312 7.64874C16.4179 7.64858 16.5045 7.64236 16.5903 7.63008C17.093 7.54858 17.5561 7.30718 17.9109 6.9417C18.1443 6.72058 18.3273 6.45173 18.4473 6.15345C18.5673 5.85515 18.6216 5.53449 18.6065 5.21332C19.1103 4.66474 19.4726 4.0014 19.6619 3.28096C19.7903 2.74444 19.7359 2.18041 19.5073 1.67833C19.2787 1.17626 18.889 0.764921 18.3999 0.509578ZM3.69181 5.06808C4.25345 5.62989 4.3943 6.438 3.9994 6.83274C3.59778 7.23436 2.80614 7.09666 2.23477 6.52512C1.67314 5.96351 1.53227 5.1554 1.92718 4.76049C2.00782 4.68375 2.10298 4.62389 2.20705 4.58438C2.31113 4.5449 2.42205 4.52655 2.5333 4.53047C2.97438 4.55342 3.38951 4.74606 3.69181 5.06808ZM17.495 6.52512C16.9241 7.096 16.1316 7.23419 15.7303 6.83274C15.3354 6.438 15.4763 5.62989 16.0379 5.06808C16.6088 4.49723 17.4009 4.35888 17.8025 4.76049C18.1975 5.1554 18.0566 5.96351 17.495 6.52512Z" fill="#11319E"/>
<path d="M12.5545 7.20904C12.1742 5.47967 12.392 4.27901 12.6413 3.57734C12.684 3.45665 12.6968 3.32742 12.6785 3.20073C12.6602 3.07405 12.6114 2.95369 12.5364 2.84999C12.4612 2.74706 12.3626 2.66351 12.2488 2.60625C12.1349 2.549 12.009 2.51969 11.8816 2.52074C11.7842 2.52313 11.6868 2.51751 11.5903 2.50395C11.3842 2.4695 11.1831 2.41025 10.9912 2.32749C10.6366 2.16952 10.2528 2.08789 9.86459 2.08789C9.4764 2.08789 9.09256 2.16952 8.73799 2.32749C8.54613 2.41025 8.34498 2.4695 8.13892 2.50395C8.04237 2.5174 7.94489 2.52301 7.84744 2.52074C7.71993 2.51942 7.59399 2.54862 7.48007 2.6059C7.36615 2.66318 7.26761 2.74687 7.19262 2.84999C7.11758 2.95369 7.06884 3.07405 7.05056 3.20073C7.03229 3.32742 7.04503 3.45665 7.08769 3.57734C7.337 4.27901 7.55478 5.47882 7.17448 7.20904C6.76648 9.06619 7.10262 9.85079 7.56788 10.9364C8.151 12.2964 8.94936 14.1601 8.94936 19.4346C8.94936 19.5125 8.98032 19.5873 9.03544 19.6424C9.09054 19.6974 9.16528 19.7284 9.2432 19.7284C9.32111 19.7284 9.39585 19.6974 9.45095 19.6424C9.50607 19.5873 9.53703 19.5125 9.53703 19.4346C9.53703 14.0396 8.71111 12.1122 8.10802 10.7051C7.65552 9.64613 7.38169 9.0081 7.74939 7.33515C8.15955 5.46893 7.91728 4.1546 7.64226 3.38057C7.63139 3.34945 7.62829 3.31613 7.63319 3.28356C7.63813 3.25095 7.65092 3.22005 7.67046 3.19353C7.68876 3.16742 7.713 3.14605 7.74122 3.1312C7.76944 3.11638 7.80078 3.10849 7.83265 3.10824H7.8367C7.96583 3.11106 8.09495 3.10347 8.22287 3.08556C8.47328 3.04539 8.71785 2.97484 8.95122 2.87553C9.23802 2.74367 9.54994 2.67538 9.86561 2.67538C10.1813 2.67538 10.4932 2.74367 10.78 2.87553C11.0134 2.97484 11.2579 3.04539 11.5083 3.08556C11.6363 3.10347 11.7654 3.11104 11.8945 3.10824H11.8965C11.9284 3.10852 11.9598 3.11638 11.988 3.13123C12.0163 3.14605 12.0406 3.16742 12.0589 3.19353C12.0785 3.22005 12.0912 3.25095 12.0962 3.28356C12.1011 3.31613 12.098 3.34945 12.0871 3.38057C11.8119 4.1546 11.5698 5.46893 11.98 7.33515C12.3475 9.00794 12.0737 9.64679 11.6203 10.7053C11.0172 12.1124 10.1913 14.0397 10.1913 19.4347C10.1913 19.5127 10.2223 19.5874 10.2774 19.6425C10.3325 19.6976 10.4072 19.7286 10.4852 19.7286C10.5631 19.7286 10.6378 19.6976 10.6929 19.6425C10.748 19.5874 10.779 19.5127 10.779 19.4347C10.779 14.1603 11.5774 12.2971 12.1605 10.9366C12.6264 9.85079 12.9625 9.06619 12.5545 7.20904Z" fill="#11319E"/>
</g>
<defs>
<clipPath id="clip0_362_1095">
<rect width="20" height="20" fill="white"/>
</clipPath>
</defs>
</svg>
