<svg width="35" height="35" viewBox="0 0 35 35" fill="none" xmlns="http://www.w3.org/2000/svg">
<path d="M14.9093 0.109138C14.5538 0.362068 14.5606 0.280037 14.5606 5.91285V11.1492L14.3897 11.6687C14.2188 12.1609 13.7882 12.9197 13.672 12.9197C13.6105 12.9197 13.3712 12.0584 13.2618 11.4363C13.2208 11.2107 13.1661 10.4998 13.1319 9.86402C13.0909 8.90699 13.0567 8.66773 12.9405 8.44214C12.2501 7.12281 10.0489 6.90406 7.96397 7.94312C6.84287 8.5105 5.99522 9.2898 5.04502 10.6365C2.3585 14.4646 0.834084 18.3679 0.164163 23.1052C0.0137719 24.1511 -0.0545875 29.2029 0.0684594 30.03C0.109475 30.3377 0.362405 31.24 0.62217 32.0398C1.15537 33.6531 1.4083 34.1043 2.0167 34.5076C2.65928 34.9314 3.00791 35.0203 3.96494 34.9793C5.33897 34.9246 6.17979 34.6169 7.58799 33.6668C8.10752 33.3181 9.03721 32.8123 10.3224 32.1834C11.3956 31.657 12.5235 31.0623 12.8243 30.8572C13.4806 30.4265 14.0001 29.8796 14.2462 29.3738C14.6153 28.6218 14.629 28.4783 14.629 23.1599V18.2586L15.6886 17.4998C16.9601 16.5837 17.2677 16.406 17.5343 16.406C17.6847 16.406 18.0675 16.6384 19.0382 17.3152L20.337 18.2312L20.3712 23.3513C20.4054 27.3093 20.4327 28.533 20.5011 28.7449C20.9386 30.0847 21.9298 30.9734 24.0626 31.9236C25.7032 32.655 26.756 33.2293 28.1778 34.1589C28.4718 34.3503 28.9776 34.6101 29.3058 34.7332C29.9005 34.9587 29.921 34.9656 31.0694 34.9656C32.2179 34.9656 32.2384 34.9656 32.6417 34.7673C33.1476 34.5144 33.6124 34.0564 33.8517 33.5642C34.1046 33.031 34.8292 30.6863 34.9317 30.0711C35.0548 29.3054 34.9864 24.1511 34.836 23.1052C34.3985 19.9949 33.6192 17.363 32.3546 14.6902C31.3702 12.6189 29.6681 10.0349 28.67 9.08472C26.7423 7.26636 23.7345 6.69214 22.4698 7.91578C21.9776 8.38746 21.923 8.56519 21.8683 9.94605C21.8204 11.1013 21.6495 12.2566 21.4649 12.7556L21.3897 12.9402L21.2325 12.7898C21.0001 12.5711 20.7335 12.0447 20.5968 11.5457C20.4942 11.156 20.4806 10.5066 20.4464 5.77613C20.4054 0.170662 20.4054 0.232185 20.0978 0.0681229C19.9337 -0.0207443 19.4415 -0.0207443 19.2706 0.0681229C18.9288 0.252693 18.9356 0.150154 18.9356 5.89234C18.9356 11.8738 18.9288 11.7849 19.4073 12.7488C19.8243 13.5896 20.419 14.2732 22.8185 16.6384C24.0284 17.8416 25.0196 18.8806 25.0196 18.9421C25.0196 19.1336 24.8146 19.2908 24.6163 19.2634C24.5206 19.2429 23.1603 18.3406 21.6017 17.2468C20.0431 16.1531 18.628 15.1892 18.4571 15.1003C18.1974 14.9636 18.0538 14.9363 17.5001 14.9363C16.9464 14.9363 16.8028 14.9636 16.5431 15.1003C16.3722 15.1892 15.1554 16.03 13.8292 16.9597C11.1974 18.8191 10.4181 19.3455 10.2882 19.3455C10.1651 19.3455 9.98057 19.113 9.98057 18.9695C9.98057 18.8875 11.0128 17.8005 12.5987 16.2009L15.2237 13.5691L15.5382 12.9197C16.1261 11.7234 16.0987 12.0378 16.0987 5.85816V0.396248L15.8731 0.198006C15.6134 -0.0344162 15.1759 -0.0754318 14.9093 0.109138ZM11.2315 8.8523C11.5187 8.91382 11.6007 9.18726 11.6485 10.3904C11.7101 11.7029 11.8263 12.3933 12.1681 13.3982L12.4278 14.1843L11.4298 15.1961L10.4249 16.2078L10.1651 15.9138C9.84385 15.5447 9.53623 14.9363 9.39268 14.3552C9.30381 14.0134 9.29014 13.7468 9.32432 13.2068C9.37217 12.3728 9.29697 12.1472 8.90733 11.9832C8.45615 11.7986 8.05283 11.99 7.85459 12.4753C7.80674 12.5984 7.77256 13.0427 7.77256 13.5828V14.4851L7.42393 14.5945C6.87705 14.7722 6.30967 15.1003 6.04307 15.4011C5.81748 15.6472 5.79698 15.7019 5.83115 15.9753C5.87217 16.3718 6.09776 16.6111 6.48057 16.6589C6.71299 16.6931 6.81553 16.6589 7.08897 16.488C7.51963 16.2146 7.99131 15.9959 8.18272 15.9959C8.29209 15.9959 8.40147 16.0984 8.58604 16.3855C8.72276 16.6043 8.94151 16.8982 9.07139 17.0418L9.30381 17.3084L8.98936 17.6433C8.49717 18.1697 8.33994 18.7097 8.47666 19.3728C8.55186 19.7419 8.55186 19.7488 8.3126 20.0769C8.18272 20.2546 7.99815 20.5623 7.90244 20.7537C7.73154 21.0886 7.71104 21.1091 7.40342 21.157C6.15244 21.3347 5.07237 21.8064 4.41612 22.449C3.90342 22.9617 3.671 23.406 3.63682 23.9597C3.61631 24.3015 3.63682 24.4109 3.77354 24.6023C3.95811 24.8757 4.21787 24.9851 4.55283 24.9168C4.87412 24.8621 5.01768 24.698 5.16123 24.2605C5.29795 23.8298 5.5167 23.5222 5.84483 23.2693C6.07725 23.0916 6.79502 22.8181 7.25303 22.7361C7.48545 22.6951 7.49912 22.7019 7.47862 22.8455C7.46494 22.9343 7.40342 23.3582 7.34873 23.7888C7.06846 25.8191 6.4874 26.865 5.21592 27.6101C4.94248 27.7673 4.68955 27.9519 4.64854 28.0271C4.61436 28.0955 4.58018 28.2937 4.58018 28.4714C4.58018 28.9705 4.96299 29.2644 5.48936 29.1619C6.09092 29.0525 7.21885 28.1296 7.76572 27.2957L8.046 26.8787L8.3126 27.1384C8.86631 27.6921 10.0284 28.2185 10.5001 28.1296C11.0675 28.0271 11.2999 27.282 10.9034 26.865C10.794 26.7488 10.671 26.6599 10.6368 26.6599C10.4864 26.6599 9.70029 26.2498 9.42686 26.031C9.26963 25.908 9.03037 25.655 8.88682 25.4773L8.64072 25.1423L8.76377 24.5066C8.83213 24.1511 8.92783 23.3992 8.98252 22.8386C9.08506 21.7722 9.1876 21.4168 9.53623 20.9587C9.70713 20.74 9.7208 20.7332 10.0216 20.7878C10.6368 20.9041 11.17 20.6853 12.3048 19.865L13.0226 19.3386L13.0431 23.7683L13.0567 28.198L12.8517 28.6218C12.4757 29.3875 11.7989 29.8591 10.0079 30.6248C8.96885 31.0691 7.73155 31.7185 6.86338 32.2654C5.63291 33.0447 5.45518 33.1472 4.99717 33.3044C4.64854 33.4275 4.39561 33.4617 3.88975 33.4617C3.29502 33.4617 3.21299 33.448 2.95323 33.2703C2.59092 33.0378 2.49522 32.8328 2.03037 31.4109C1.49717 29.7566 1.4835 29.6267 1.52451 26.7214C1.55869 24.1853 1.60655 23.5974 1.91416 21.8884C2.58408 18.156 4.21787 14.3552 6.48057 11.2996C7.41026 10.0486 8.22373 9.40601 9.33115 9.05054C9.80283 8.90015 10.7667 8.74976 10.9718 8.79078C11.0128 8.79761 11.129 8.82496 11.2315 8.8523ZM25.0333 8.8523C25.9288 9.03687 27.1593 9.7273 27.795 10.4041C28.5675 11.2107 29.8595 13.1931 30.6935 14.8337C32.0948 17.6091 32.8878 20.2 33.3321 23.4607C33.4757 24.5203 33.544 28.991 33.4278 29.7293C33.3116 30.447 32.5665 32.7234 32.3546 33.0105C32.0948 33.3455 31.6778 33.5095 31.0626 33.5027C30.3038 33.5027 29.5929 33.2293 28.5606 32.5525C27.3849 31.7869 26.4005 31.2537 24.9376 30.5974C23.0714 29.7634 22.4698 29.3259 22.087 28.5056L21.9093 28.1296L21.8888 23.7341C21.8683 20.1316 21.8819 19.3455 21.9571 19.3865C22.005 19.4138 22.3605 19.6668 22.7433 19.9402C23.1261 20.2205 23.6456 20.5349 23.8917 20.658C24.3019 20.8425 24.3976 20.863 24.8146 20.8357L25.2862 20.8015L25.4981 21.0955C25.8058 21.5261 25.8946 21.8474 25.9767 22.7908C26.0382 23.5427 26.1407 24.2332 26.2911 24.9304C26.3458 25.2107 26.1681 25.5115 25.6827 25.9421C25.3341 26.2634 24.6368 26.6599 24.4386 26.6599C24.3839 26.6599 24.2403 26.7488 24.1173 26.8582C23.919 27.0359 23.8917 27.0974 23.8917 27.4119C23.8917 27.7263 23.919 27.7878 24.1241 27.9724C24.3429 28.1707 24.3839 28.1775 24.7667 28.1433C25.3067 28.0955 26.0655 27.7195 26.5714 27.2478L26.961 26.8855L27.2071 27.2546C27.8839 28.2595 29.1212 29.1892 29.7843 29.1892C30.1397 29.1892 30.4884 28.8201 30.4884 28.4509C30.4884 28.0955 30.3312 27.9041 29.7501 27.5623C28.8204 27.0085 28.1847 26.1199 27.8907 24.9783C27.7335 24.3699 27.5147 22.8455 27.5763 22.7839C27.6446 22.7087 28.3897 22.9002 28.8136 23.0984C29.381 23.3582 29.6954 23.7 29.8731 24.24C30.044 24.7527 30.256 24.9509 30.6251 24.9509C31.336 24.9509 31.5958 24.0759 31.1446 23.1804C30.6319 22.1755 29.3878 21.4783 27.5284 21.157C27.3097 21.1228 27.255 21.075 27.1251 20.8015C27.0431 20.6306 26.8585 20.3298 26.7149 20.1384C26.4688 19.8103 26.4552 19.7693 26.503 19.4822C26.6329 18.7234 26.4757 18.1492 25.9903 17.6228L25.7169 17.322L26.0108 16.9734C26.1681 16.7752 26.38 16.4812 26.4825 16.3103C26.5851 16.1326 26.6944 15.9959 26.7286 15.9959C26.9063 15.9959 27.4806 16.2419 27.7813 16.447C28.0411 16.6179 28.2052 16.6794 28.4171 16.6794C28.9845 16.6794 29.3399 16.1257 29.0938 15.613C28.9366 15.2712 28.171 14.8064 27.3302 14.533C27.2276 14.5056 27.214 14.3894 27.2208 13.658C27.2276 12.3181 27.0499 11.9627 26.3868 11.9627C26.1407 11.9627 26.0245 12.0037 25.881 12.1336C25.669 12.3318 25.6827 12.2566 25.6759 13.364C25.669 14.3894 25.5392 14.8816 25.0948 15.5652C24.6026 16.3171 24.712 16.3377 23.5636 15.1892L22.5587 14.1843L22.798 13.5212C23.1671 12.4822 23.3106 11.6687 23.3585 10.3699C23.4063 9.09156 23.4337 9.00269 23.8644 8.84546C24.1788 8.72925 24.4864 8.73609 25.0333 8.8523Z" fill="#11319E"/>
</svg>
